<?xml version="1.0" encoding="UTF-8"?> <svg xmlns="http://www.w3.org/2000/svg" xmlns:xlink="http://www.w3.org/1999/xlink" id="Слой_1" data-name="Слой 1" viewBox="0 0 82.15 24.21"> <defs> <style>.cls-1{fill:none;}.cls-2{clip-path:url(#clip-path);}.cls-3{fill:#f05921;}.cls-4{fill:#fff;}.cls-5{clip-path:url(#clip-path-2);}</style> <clipPath id="clip-path"> <rect class="cls-1" x="-796.58" y="293.1" width="595.28" height="841.89"></rect> </clipPath> <clipPath id="clip-path-2"> <rect class="cls-1" x="-501.16" y="-48.34" width="595.28" height="841.89"></rect> </clipPath> </defs> <rect class="cls-3" x="0.14" width="21.52" height="24.21"></rect> <polygon class="cls-4" points="2.83 4.03 5.52 4.03 5.52 10.76 16.28 10.76 16.28 4.03 18.97 4.03 18.97 1.34 13.59 1.34 13.59 8.07 8.21 8.07 8.21 1.34 2.83 1.34 2.83 4.03"></polygon> <polygon class="cls-4" points="2.83 20.17 5.52 20.17 5.52 13.45 16.28 13.45 16.28 20.17 18.97 20.17 18.97 22.86 13.59 22.86 13.59 16.14 8.21 16.14 8.21 22.86 2.83 22.86 2.83 20.17"></polygon> <polygon class="cls-4" points="30.09 6.99 32.62 6.99 32.62 1.04 34.75 1.04 34.75 15.09 32.62 15.09 32.62 9.15 30.09 9.15 30.09 15.09 27.95 15.09 27.95 1.04 30.09 1.04 30.09 6.99"></polygon> <polygon class="cls-4" points="57.41 10.4 57.46 10.35 60.24 1.04 62.61 1.04 62.61 15.11 60.5 15.11 60.5 6.16 60.45 6.2 57.57 15.09 55.3 15.09 55.3 1.04 57.41 1.04 57.41 10.4"></polygon> <polygon class="cls-4" points="48.24 7 50.77 7 50.77 1.06 52.92 1.06 52.92 15.11 50.77 15.11 50.77 9.16 48.24 9.16 48.24 15.11 46.12 15.11 46.12 1.06 48.24 1.06 48.24 7"></polygon> <g class="cls-5"> <path class="cls-4" d="M43.49,2.74a3.6,3.6,0,0,0-1.67-1.6,3.56,3.56,0,0,0-3,.17,3.42,3.42,0,0,0-1.66,2.51V8.91l0,3.49A3.34,3.34,0,0,0,42,14.88a3.4,3.4,0,0,0,1.79-2.55v-8a3.46,3.46,0,0,0-.33-1.62m-1.91,9.41a1.34,1.34,0,0,1-.61.79,1.3,1.3,0,0,1-1.24-.06A1.27,1.27,0,0,1,39.2,12v-8A1.26,1.26,0,0,1,40.09,3a1.22,1.22,0,0,1,1.4.64l.1.45Z"></path> </g> <path class="cls-4" d="M27.66,22.68V18.45a.17.17,0,0,1,0-.1.13.13,0,0,1,.1,0h.63a.12.12,0,0,1,.09,0,.12.12,0,0,1,0,.1v1.89c0,.07,0,.18,0,.32s0,.34,0,.6h0c.06-.15.13-.33.22-.54l.21-.48.83-1.78a.26.26,0,0,1,.08-.12s.05,0,.09,0h.63a.14.14,0,0,1,.09,0,.15.15,0,0,1,0,.1v4.23a.13.13,0,0,1,0,.1.14.14,0,0,1-.09,0H30a.12.12,0,0,1-.14-.13V20.6c0-.09,0-.2,0-.34s0-.27,0-.39h0c0,.13-.09.25-.13.35s-.12.29-.23.53l-.91,1.95c0,.06-.05.09-.07.1h-.71a.15.15,0,0,1-.1,0,.13.13,0,0,1,0-.1"></path> <path class="cls-4" d="M33.09,22.68V18.45a.15.15,0,0,1,0-.1.13.13,0,0,1,.1,0h.63a.13.13,0,0,1,.1,0,.15.15,0,0,1,0,.1v1.67h1.25V18.45a.11.11,0,0,1,0-.1.14.14,0,0,1,.11,0H36a.12.12,0,0,1,.09,0,.19.19,0,0,1,0,.1v4.23a.19.19,0,0,1,0,.11l-.09,0h-.63a.14.14,0,0,1-.11,0,.1.1,0,0,1,0-.1V20.83H34v1.85a.11.11,0,0,1-.13.13h-.63a.11.11,0,0,1-.13-.13"></path> <path class="cls-4" d="M40.84,22.81h-.63a.16.16,0,0,1-.11,0s0-.05,0-.1V20.83h-.19a.62.62,0,0,0-.34.1.6.6,0,0,0-.16.34l-.16.79a1.66,1.66,0,0,1-.13.46.55.55,0,0,1-.14.19.82.82,0,0,1-.31.16,1.28,1.28,0,0,1-.38.05h-.09a.16.16,0,0,1,0-.08l-.17-.5a.14.14,0,0,1,0-.09s0,0,.07,0l.17,0a.32.32,0,0,0,.18-.1,1,1,0,0,0,.11-.34l.1-.55a1,1,0,0,1,.19-.44.93.93,0,0,1,.4-.26v0a.8.8,0,0,1-.35-.23.86.86,0,0,1-.16-.41l-.08-.46a.74.74,0,0,0-.1-.3.33.33,0,0,0-.19-.12l-.16,0s0,0-.07-.05a.14.14,0,0,1,0-.09l.14-.46a.09.09,0,0,1,0-.06s0,0,.09,0a.93.93,0,0,1,.27,0,1,1,0,0,1,.28.12.75.75,0,0,1,.25.25,1.46,1.46,0,0,1,.15.45l.1.56a.67.67,0,0,0,.16.38.52.52,0,0,0,.4.11h.13V18.45a.15.15,0,0,1,0-.1.16.16,0,0,1,.11,0h.63a.13.13,0,0,1,.1,0,.15.15,0,0,1,0,.1v1.67h.13a.64.64,0,0,0,.4-.11.67.67,0,0,0,.16-.38l.1-.56a1.24,1.24,0,0,1,.15-.45.75.75,0,0,1,.25-.25,1.11,1.11,0,0,1,.27-.12,1.06,1.06,0,0,1,.29,0,.11.11,0,0,1,.08,0,.07.07,0,0,1,0,.06l.14.46a.14.14,0,0,1,0,.09s0,.05-.06.05l-.17,0a.3.3,0,0,0-.19.12.94.94,0,0,0-.1.3l-.08.46a.77.77,0,0,1-.17.41.71.71,0,0,1-.34.23v0a.93.93,0,0,1,.4.26,1,1,0,0,1,.19.44l.11.55a.85.85,0,0,0,.1.34.31.31,0,0,0,.19.1l.17,0a.09.09,0,0,1,.06,0,.14.14,0,0,1,0,.09l-.17.5a.16.16,0,0,1-.05.08h-.09a1.28,1.28,0,0,1-.38-.05.71.71,0,0,1-.3-.16.4.4,0,0,1-.15-.19,1.66,1.66,0,0,1-.13-.46l-.16-.79a.6.6,0,0,0-.16-.34.62.62,0,0,0-.34-.1H41v1.85a.16.16,0,0,1,0,.11s0,0-.1,0"></path> <path class="cls-4" d="M44.92,22.68V18.45a.17.17,0,0,1,0-.1.13.13,0,0,1,.1,0h.63a.17.17,0,0,1,.1,0,.15.15,0,0,1,0,.1v1.89c0,.07,0,.18,0,.32s0,.34,0,.6h0c.06-.15.13-.33.22-.54l.21-.48.83-1.78a.26.26,0,0,1,.08-.12s.05,0,.09,0h.63a.14.14,0,0,1,.09,0,.15.15,0,0,1,0,.1v4.23a.13.13,0,0,1,0,.1.14.14,0,0,1-.09,0h-.63a.12.12,0,0,1-.14-.13V20.6c0-.09,0-.2,0-.34s0-.27,0-.39h0c0,.13-.09.25-.13.35s-.12.29-.23.53l-.91,1.95c0,.06,0,.09-.07.1h-.71a.15.15,0,0,1-.1,0,.13.13,0,0,1,0-.1"></path> <path class="cls-4" d="M50.35,22.68V18.45a.15.15,0,0,1,0-.1.13.13,0,0,1,.1,0h.63a.13.13,0,0,1,.1,0,.15.15,0,0,1,0,.1v1.67h1.25V18.45a.11.11,0,0,1,0-.1.14.14,0,0,1,.11,0h.63a.12.12,0,0,1,.09,0,.19.19,0,0,1,0,.1v4.23a.19.19,0,0,1,0,.11l-.09,0h-.63a.14.14,0,0,1-.11,0,.1.1,0,0,1,0-.1V20.83H51.24v1.85a.11.11,0,0,1-.13.13h-.63a.11.11,0,0,1-.13-.13"></path> <path class="cls-4" d="M55.72,22.68V18.45a.17.17,0,0,1,0-.1.13.13,0,0,1,.1,0h.63a.17.17,0,0,1,.1,0,.15.15,0,0,1,0,.1v1.89c0,.07,0,.18,0,.32s0,.34,0,.6h0c.06-.15.13-.33.23-.54s.16-.38.21-.48l.82-1.78a.26.26,0,0,1,.08-.12s0,0,.09,0h.63a.12.12,0,0,1,.09,0,.12.12,0,0,1,0,.1v4.23a.11.11,0,0,1,0,.1.12.12,0,0,1-.09,0H58a.11.11,0,0,1-.13-.13V20.6a1.91,1.91,0,0,1,0-.34c0-.14,0-.27,0-.39h0l-.14.35c0,.11-.12.29-.23.53l-.91,1.95a.17.17,0,0,1-.07.1h-.71a.17.17,0,0,1-.1,0,.13.13,0,0,1,0-.1"></path> <path class="cls-4" d="M62,21v1.66a.13.13,0,0,1,0,.1.12.12,0,0,1-.09,0h-.63a.15.15,0,0,1-.1,0,.13.13,0,0,1,0-.1V18.45a.17.17,0,0,1,0-.1.13.13,0,0,1,.1,0h1.08a3.39,3.39,0,0,1,.6,0,1.45,1.45,0,0,1,.4.14,1,1,0,0,1,.39.42,1.42,1.42,0,0,1,.14.65,1.36,1.36,0,0,1-.41,1.05,1.46,1.46,0,0,1-1.09.4Zm0-2v1.3h.2a.8.8,0,0,0,.59-.17.77.77,0,0,0,.17-.52.59.59,0,0,0-.16-.47.76.76,0,0,0-.51-.14Z"></path> <path class="cls-4" d="M66,22.68V18.45a.17.17,0,0,1,0-.1.13.13,0,0,1,.1,0h.63a.17.17,0,0,1,.1,0,.15.15,0,0,1,0,.1v1.89c0,.07,0,.18,0,.32s0,.34,0,.6h0c.06-.15.13-.33.23-.54s.16-.38.21-.48l.82-1.78a.26.26,0,0,1,.08-.12s0,0,.09,0H69a.12.12,0,0,1,.09,0,.12.12,0,0,1,0,.1v4.23a.11.11,0,0,1,0,.1.12.12,0,0,1-.09,0h-.63a.11.11,0,0,1-.13-.13V20.6a1.91,1.91,0,0,1,0-.34c0-.14,0-.27,0-.39h0l-.14.35c0,.11-.12.29-.23.53l-.91,1.95a.17.17,0,0,1-.07.1h-.71a.17.17,0,0,1-.1,0,.13.13,0,0,1,0-.1"></path> <path class="cls-4" d="M71.46,22.68V18.45a.15.15,0,0,1,0-.1.14.14,0,0,1,.11,0h.63s.08,0,.09,0a.23.23,0,0,1,0,.1v1.67H73.6V18.45a.11.11,0,0,1,0-.1.16.16,0,0,1,.11,0h.63a.12.12,0,0,1,.09,0,.13.13,0,0,1,0,.1v4.23a.14.14,0,0,1,0,.11l-.09,0h-.63a.16.16,0,0,1-.11,0,.1.1,0,0,1,0-.1V20.83H72.36v1.85a.19.19,0,0,1,0,.1s0,0-.09,0H71.6a.14.14,0,0,1-.11,0,.13.13,0,0,1,0-.1"></path> <path class="cls-4" d="M76.83,22.68V18.45a.17.17,0,0,1,0-.1.15.15,0,0,1,.1,0h2.23l.08,0a.14.14,0,0,1,0,.06h0v.06l-.13.54a.11.11,0,0,1-.05.08.15.15,0,0,1-.1,0H77.73v3.57a.19.19,0,0,1,0,.1.16.16,0,0,1-.09,0H77a.12.12,0,0,1-.09,0,.11.11,0,0,1,0-.1"></path> <path class="cls-4" d="M79.75,2.92A8.72,8.72,0,0,1,80,5.84h-2.2c-.14-1,.43-2.46-.85-2.81a1.27,1.27,0,0,0-1.28.35,1.35,1.35,0,0,0-.29,1.06v7.71a1.3,1.3,0,0,0,.91.92,1.24,1.24,0,0,0,1.25-.44c.31-.34.24-.84.25-1.31V10H80c-.09,1.32.27,2.82-.56,3.84a3.41,3.41,0,0,1-5.66-.1,3.29,3.29,0,0,1-.49-1.51V3.88a3.48,3.48,0,0,1,2-2.71,3.48,3.48,0,0,1,3.52.45,3.79,3.79,0,0,1,1,1.3"></path> <path class="cls-4" d="M71.09,12.37a3.43,3.43,0,0,1-2,2.62l-.81.23a3.33,3.33,0,0,1-2.89-.89c-1.08-.94-1.1-2.33-1-3.76h2.2c.08.77-.25,1.73.44,2.24a1.13,1.13,0,0,0,1,.26,1.19,1.19,0,0,0,.93-.8c.1-.78,0-1.64.06-2.45a3.56,3.56,0,0,1-3.37-.49,3.37,3.37,0,0,1-1.24-2.16c-.06-2,0-4.09,0-6.13h2.2V7a1,1,0,0,0,.54.77,1.55,1.55,0,0,0,1.42,0A1.13,1.13,0,0,0,69,6.85V.93h2.09Z"></path> </svg> 